<?xml version="1.0" encoding="UTF-8" standalone="no"?>
<!DOCTYPE svg PUBLIC "-//W3C//DTD SVG 1.1//EN"
 "http://www.w3.org/Graphics/SVG/1.1/DTD/svg11.dtd">
<!-- Generated by graphviz version 2.43.0 (0)
 -->
<!-- Title: Dependencies Pages: 1 -->
<svg width="195pt" height="210pt"
 viewBox="0.00 0.00 195.36 210.00" xmlns="http://www.w3.org/2000/svg" xmlns:xlink="http://www.w3.org/1999/xlink">
<g id="graph0" class="graph" transform="scale(1 1) rotate(0) translate(4 206)">
<title>Dependencies</title>
<polygon fill="white" stroke="transparent" points="-4,4 -4,-206 191.36,-206 191.36,4 -4,4"/>
<!-- s21_tetris -->
<g id="node1" class="node">
<title>s21_tetris</title>
<polygon fill="#e0f7fa" stroke="black" points="138.36,-202 70.36,-202 70.36,-166 138.36,-166 138.36,-202"/>
<text text-anchor="middle" x="104.36" y="-180.9" font-family="Arial" font-size="12.00">s21_tetris</text>
</g>
<!-- s21_fsm -->
<g id="node2" class="node">
<title>s21_fsm</title>
<polygon fill="#fff3e0" stroke="black" points="102.36,-119 40.36,-119 40.36,-83 102.36,-83 102.36,-119"/>
<text text-anchor="middle" x="71.36" y="-97.9" font-family="Arial" font-size="12.00">s21_fsm</text>
</g>
<!-- s21_tetris&#45;&gt;s21_fsm -->
<g id="edge1" class="edge">
<title>s21_tetris&#45;&gt;s21_fsm</title>
<path fill="none" stroke="#0277bd" d="M84.25,-165.89C79.47,-160.68 74.99,-154.57 72.36,-148 70.04,-142.21 69.04,-135.66 68.77,-129.37"/>
<polygon fill="#0277bd" stroke="#0277bd" points="68.91,-119.18 73.28,-129.24 68.85,-124.18 68.78,-129.18 68.78,-129.18 68.78,-129.18 68.85,-124.18 64.28,-129.12 68.91,-119.18 68.91,-119.18"/>
<text text-anchor="middle" x="98.36" y="-140" font-family="Arial" font-size="10.00">использует</text>
</g>
<!-- s21_bgame -->
<g id="node3" class="node">
<title>s21_bgame</title>
<polygon fill="#f3e5f5" stroke="black" points="114.36,-36 34.36,-36 34.36,0 114.36,0 114.36,-36"/>
<text text-anchor="middle" x="74.36" y="-14.9" font-family="Arial" font-size="12.00">s21_bgame</text>
</g>
<!-- s21_tetris&#45;&gt;s21_bgame -->
<g id="edge2" class="edge">
<title>s21_tetris&#45;&gt;s21_bgame</title>
<path fill="none" stroke="#0277bd" d="M116.43,-165.97C119.66,-160.49 122.71,-154.22 124.36,-148 135.08,-107.62 143.65,-91.06 124.36,-54 122.24,-49.92 119.4,-46.23 116.15,-42.89"/>
<polygon fill="#0277bd" stroke="#0277bd" points="108.5,-36.18 118.98,-39.39 112.25,-39.47 116.01,-42.77 116.01,-42.77 116.01,-42.77 112.25,-39.47 113.04,-46.15 108.5,-36.18 108.5,-36.18"/>
<text text-anchor="middle" x="161.36" y="-98.5" font-family="Arial" font-size="10.00">использует</text>
</g>
<!-- s21_fsm&#45;&gt;s21_bgame -->
<g id="edge3" class="edge">
<title>s21_fsm&#45;&gt;s21_bgame</title>
<path fill="none" stroke="#757575" stroke-dasharray="5,2" d="M40.23,-92.21C17.35,-84.83 -7.93,-72.15 3.36,-54 8.53,-45.69 16.32,-39.29 24.88,-34.38"/>
<polygon fill="#757575" stroke="#757575" points="33.99,-29.8 27.08,-38.31 29.52,-32.05 25.06,-34.29 25.06,-34.29 25.06,-34.29 29.52,-32.05 23.03,-30.27 33.99,-29.8 33.99,-29.8"/>
<text text-anchor="middle" x="27.86" y="-57" font-family="Arial" font-size="10.00">не зависит</text>
</g>
<!-- s21_bgame&#45;&gt;s21_fsm -->
<g id="edge4" class="edge">
<title>s21_bgame&#45;&gt;s21_fsm</title>
<path fill="none" stroke="#757575" stroke-dasharray="5,2" d="M73.72,-36.15C73.33,-46.78 72.82,-60.66 72.37,-72.77"/>
<polygon fill="#757575" stroke="#757575" points="72,-82.82 67.87,-72.66 72.18,-77.83 72.37,-72.83 72.37,-72.83 72.37,-72.83 72.18,-77.83 76.86,-73 72,-82.82 72,-82.82"/>
<text text-anchor="middle" x="97.86" y="-57" font-family="Arial" font-size="10.00">не зависит</text>
</g>
</g>
</svg>
